<svg width="154" height="44" viewBox="0 0 154 44" fill="none" xmlns="http://www.w3.org/2000/svg">
<path d="M0.6 43V2.02C0.6 1.7 0.7 1.46 0.9 1.3C1.1 1.1 1.5 0.999997 2.1 0.999997H8.1C10.02 0.999997 11.7 1.34 13.14 2.02C14.62 2.7 15.84 3.78 16.8 5.26C17.8 6.74 18.54 8.68 19.02 11.08C19.54 13.44 19.8 16.34 19.8 19.78C19.8 24.62 19.48 28.56 18.84 31.6C18.24 34.64 17.38 37 16.26 38.68C15.14 40.32 13.86 41.46 12.42 42.1C10.98 42.7 9.44 43 7.8 43H0.6ZM3.3 40.36H7.8C8.96 40.36 10.08 40.14 11.16 39.7C12.24 39.22 13.2 38.26 14.04 36.82C14.88 35.38 15.56 33.3 16.08 30.58C16.6 27.82 16.86 24.16 16.86 19.6C16.86 16.72 16.68 14.26 16.32 12.22C15.96 10.18 15.42 8.52 14.7 7.24C13.98 5.96 13.06 5.04 11.94 4.48C10.82 3.88 9.5 3.58 7.98 3.58H3.3V40.36ZM25.6767 43V2.44C25.6767 1.96 25.7167 1.62 25.7967 1.42C25.8767 1.22 26.1167 1.1 26.5167 1.06C26.9167 1.02 27.5567 0.999997 28.4367 0.999997V42.28C28.4367 42.52 28.3767 42.7 28.2567 42.82C28.1767 42.9 27.9567 42.96 27.5967 43C27.2367 43 26.5967 43 25.6767 43ZM45.6605 43.6C43.9405 43.6 42.3805 43.32 40.9805 42.76C39.6205 42.2 38.4405 41.18 37.4405 39.7C36.4805 38.22 35.7405 36.1 35.2205 33.34C34.7005 30.54 34.4405 26.94 34.4405 22.54C34.4405 17.94 34.7405 14.2 35.3405 11.32C35.9405 8.44 36.8005 6.22 37.9205 4.66C39.0405 3.06 40.3605 1.96 41.8805 1.36C43.4005 0.719998 45.1005 0.399998 46.9805 0.399998C48.7805 0.399998 50.2605 0.679998 51.4205 1.24C52.6205 1.76 53.2205 2.36 53.2205 3.04C53.2205 3.32 53.1805 3.62 53.1005 3.94C53.0605 4.22 52.9605 4.5 52.8005 4.78C52.2005 4.26 51.4605 3.86 50.5805 3.58C49.7405 3.26 48.7005 3.1 47.4605 3.1C45.9005 3.1 44.5005 3.38 43.2605 3.94C42.0205 4.5 40.9405 5.48 40.0205 6.88C39.1405 8.28 38.4605 10.24 37.9805 12.76C37.5005 15.24 37.2605 18.44 37.2605 22.36C37.2605 26.52 37.4805 29.84 37.9205 32.32C38.3605 34.76 38.9605 36.6 39.7205 37.84C40.5205 39.08 41.4205 39.9 42.4205 40.3C43.4605 40.7 44.5805 40.9 45.7805 40.9C46.8205 40.9 47.7205 40.76 48.4805 40.48C49.2405 40.16 49.8405 39.8 50.2805 39.4C50.7605 39 51.0405 38.66 51.1205 38.38V21.76H44.7605V20.14C44.7605 19.62 45.0405 19.36 45.6005 19.36H53.7605L53.7005 39.94C53.4605 40.3 53.0205 40.78 52.3805 41.38C51.7805 41.94 50.9205 42.46 49.8005 42.94C48.7205 43.38 47.3405 43.6 45.6605 43.6ZM59.7783 43V2.44C59.7783 1.96 59.8183 1.62 59.8983 1.42C59.9783 1.22 60.2183 1.1 60.6183 1.06C61.0183 1.02 61.6583 0.999997 62.5383 0.999997V42.28C62.5383 42.52 62.4783 42.7 62.3583 42.82C62.2783 42.9 62.0583 42.96 61.6983 43C61.3383 43 60.6983 43 59.7783 43ZM70.942 25C70.382 25 70.122 24.92 70.162 24.76C70.242 24.56 70.282 24.32 70.282 24.04V2.02C70.282 1.82 70.282 1.6 70.282 1.36C70.322 1.12 70.442 0.999997 70.642 0.999997H76.702C79.222 0.999997 81.222 1.5 82.702 2.5C84.222 3.46 85.302 4.78 85.942 6.46C86.622 8.14 86.962 10.08 86.962 12.28C86.962 14.48 86.722 16.38 86.242 17.98C85.762 19.54 85.042 20.84 84.082 21.88C83.162 22.92 82.042 23.7 80.722 24.22C79.442 24.74 78.002 25 76.402 25H70.942ZM69.622 43V1.72C69.622 1.48 69.682 1.3 69.802 1.18C69.922 1.06 70.102 0.999997 70.342 0.999997H71.602C71.962 0.999997 72.162 1.12 72.202 1.36C72.282 1.6 72.322 1.72 72.322 1.72V42.28C72.322 42.52 72.282 42.7 72.202 42.82C72.122 42.9 71.882 42.96 71.482 43C71.122 43 70.502 43 69.622 43ZM72.022 22.42H76.522C78.282 22.42 79.702 22.02 80.782 21.22C81.862 20.42 82.682 19.26 83.242 17.74C83.802 16.18 84.082 14.28 84.082 12.04C84.082 10.48 83.862 9.06 83.422 7.78C83.022 6.46 82.282 5.42 81.202 4.66C80.162 3.86 78.702 3.46 76.822 3.46H72.022V22.42ZM92.0048 43V2.08C92.0048 1.72 92.0448 1.46 92.1248 1.3C92.2048 1.14 92.4248 1.06 92.7848 1.06C93.1848 1.02 93.8448 0.999997 94.7648 0.999997V40.42H107.245V42.28C107.245 42.6 107.185 42.8 107.065 42.88C106.945 42.96 106.765 43 106.525 43H92.0048ZM110.547 43.06C110.387 43.06 110.147 43.06 109.827 43.06C109.547 43.06 109.227 43.04 108.867 43L120.387 1.12C120.427 0.879997 120.727 0.759997 121.287 0.759997C121.487 0.759997 121.687 0.779998 121.887 0.819999C122.127 0.819999 122.307 0.839999 122.427 0.879999L134.007 42.28C134.087 42.56 134.047 42.76 133.887 42.88C133.767 43 133.447 43.06 132.927 43.06C132.727 43.06 132.487 43.06 132.207 43.06C131.927 43.06 131.607 43.04 131.247 43L124.167 16.48C123.727 14.8 123.307 13.18 122.907 11.62C122.547 10.06 122.227 8.66 121.947 7.42C121.667 6.18 121.507 5.26 121.467 4.66C121.387 5.26 121.207 6.18 120.927 7.42C120.687 8.66 120.367 10.06 119.967 11.62C119.607 13.18 119.187 14.8 118.707 16.48L111.927 42.46C111.847 42.7 111.707 42.86 111.507 42.94C111.347 43.02 111.027 43.06 110.547 43.06ZM114.267 31.06V28.48H129.507V31.06H114.267ZM143.697 27.76L142.377 27.7L132.477 1.48C132.437 1.28 132.437 1.16 132.477 1.12C132.557 1.04 132.817 0.999997 133.257 0.999997C133.737 0.999997 134.477 0.999997 135.477 0.999997L138.597 9.7C139.077 10.94 139.577 12.32 140.097 13.84C140.617 15.32 141.097 16.76 141.537 18.16C141.977 19.56 142.337 20.74 142.617 21.7C142.897 22.66 143.057 23.22 143.097 23.38C143.097 23.22 143.237 22.66 143.517 21.7C143.797 20.74 144.177 19.56 144.657 18.16C145.137 16.76 145.617 15.3 146.097 13.78C146.617 12.26 147.097 10.88 147.537 9.64L150.417 1.54C150.457 1.34 150.537 1.2 150.657 1.12C150.777 1.04 151.037 0.999997 151.437 0.999997C151.837 0.999997 152.497 0.999997 153.417 0.999997L143.697 27.76ZM141.657 43V24.04H144.357V42.28C144.357 42.52 144.317 42.7 144.237 42.82C144.157 42.9 143.937 42.96 143.577 43C143.217 43 142.577 43 141.657 43Z" fill="#050303"/>
</svg>
